<svg width="39" height="39" viewBox="0 0 39 39" fill="none" xmlns="http://www.w3.org/2000/svg">
<path d="M35.5797 38.7492L22.2447 25.4118C16.3126 29.6293 8.13839 28.5977 3.44007 23.0387C-1.25824 17.4797 -0.91326 9.24789 4.2337 4.10152C9.37931 -1.04711 17.6119 -1.39358 23.1719 3.30449C28.732 8.00256 29.7641 16.1776 25.5464 22.1102L38.8814 35.4475L35.582 38.7469L35.5797 38.7492ZM14.1317 4.66615C9.70701 4.66516 5.88965 7.77109 4.99081 12.1035C4.09197 16.436 6.35869 20.8042 10.4186 22.5634C14.4785 24.3227 19.2158 22.9895 21.7623 19.371C24.3087 15.7525 23.9645 10.8433 20.938 7.61552L22.3497 9.01552L20.7584 7.42885L20.7304 7.40085C18.9845 5.64426 16.6083 4.65948 14.1317 4.66615Z" fill="#2E3A59"/>
</svg>
