<svg width="58" height="58" viewBox="0 0 58 58" fill="none" xmlns="http://www.w3.org/2000/svg">
<path fill-rule="evenodd" clip-rule="evenodd" d="M24.4999 0.500488C11.245 0.500488 0.499878 11.2457 0.499878 24.5005C0.499878 37.7553 11.245 48.5005 24.4999 48.5005C29.1349 48.5005 33.463 47.1866 37.1321 44.9109L48.1108 55.8896C50.2587 58.0375 53.7411 58.0375 55.889 55.8896C58.0368 53.7417 58.0368 50.2593 55.889 48.1114L44.9103 37.1327C47.186 33.4636 48.4999 29.1355 48.4999 24.5005C48.4999 11.2457 37.7547 0.500488 24.4999 0.500488ZM8.49988 24.5005C8.49988 15.6639 15.6633 8.50049 24.4999 8.50049C33.3364 8.50049 40.4999 15.6639 40.4999 24.5005C40.4999 33.337 33.3364 40.5005 24.4999 40.5005C15.6633 40.5005 8.49988 33.337 8.49988 24.5005Z" fill="white" fill-opacity="0.3"/>
</svg>
