<svg width="66" height="67" viewBox="0 0 66 67" fill="none" xmlns="http://www.w3.org/2000/svg">
<g filter="url(#filter0_d_13_1432)">
<path fill-rule="evenodd" clip-rule="evenodd" d="M12.4999 25.5511C12.4999 16.7146 19.6633 9.55115 28.4999 9.55115C37.3364 9.55115 44.4999 16.7146 44.4999 25.5511C44.4999 34.3877 37.3364 41.5511 28.4999 41.5511C19.6633 41.5511 12.4999 34.3877 12.4999 25.5511ZM28.4999 1.55115C15.245 1.55115 4.49988 12.2963 4.49988 25.5511C4.49988 38.806 15.245 49.5511 28.4999 49.5511C33.1349 49.5511 37.463 48.2372 41.1321 45.9616L52.1108 56.9402C54.2587 59.0881 57.7411 59.0881 59.889 56.9402C62.0368 54.7924 62.0368 51.3099 59.889 49.1621L48.9103 38.1834C51.186 34.5143 52.4999 30.1862 52.4999 25.5511C52.4999 12.2963 41.7547 1.55115 28.4999 1.55115Z" fill="white"/>
</g>
<defs>
<filter id="filter0_d_13_1432" x="-1" y="0.0506592" width="68" height="68" filterUnits="userSpaceOnUse" color-interpolation-filters="sRGB">
<feFlood flood-opacity="0" result="BackgroundImageFix"/>
<feColorMatrix in="SourceAlpha" type="matrix" values="0 0 0 0 0 0 0 0 0 0 0 0 0 0 0 0 0 0 127 0" result="hardAlpha"/>
<feOffset dy="4"/>
<feGaussianBlur stdDeviation="2"/>
<feComposite in2="hardAlpha" operator="out"/>
<feColorMatrix type="matrix" values="0 0 0 0 0 0 0 0 0 0 0 0 0 0 0 0 0 0 0.25 0"/>
<feBlend mode="normal" in2="BackgroundImageFix" result="effect1_dropShadow_13_1432"/>
<feBlend mode="normal" in="SourceGraphic" in2="effect1_dropShadow_13_1432" result="shape"/>
</filter>
</defs>
</svg>
