<svg width="24" height="24" viewBox="0 0 24 24" fill="none" xmlns="http://www.w3.org/2000/svg">
<path fill-rule="evenodd" clip-rule="evenodd" d="M4.99998 4C5.55227 4 5.99998 4.44772 5.99998 5V6.57849C6.12016 6.47136 6.24183 6.36666 6.3641 6.26492C7.25304 5.52528 8.28246 4.8523 9.18463 4.51275C10.9168 3.86079 12.8215 3.82963 14.5741 4.42456C16.3268 5.01949 17.8189 6.20372 18.7962 7.77546C19.7736 9.3472 20.1758 11.2092 19.9342 13.0442C19.6926 14.8792 18.8222 16.5737 17.4714 17.8389C16.1205 19.1041 14.3727 19.8618 12.5259 19.9829C10.679 20.1039 8.84725 19.5808 7.3428 18.5028C5.83835 17.4247 4.75425 15.8583 4.27522 14.0706C4.13228 13.5371 4.44886 12.9888 4.98232 12.8458C5.51579 12.7029 6.06413 13.0194 6.20707 13.5529C6.56634 14.8937 7.37942 16.0685 8.50776 16.8771C9.6361 17.6856 11.0099 18.0779 12.395 17.9872C13.7802 17.8964 15.091 17.3281 16.1042 16.3792C17.1173 15.4303 17.7701 14.1594 17.9513 12.7832C18.1325 11.4069 17.8309 10.0104 17.0978 8.83159C16.3648 7.65279 15.2457 6.76462 13.9313 6.31842C12.6168 5.87222 11.1883 5.8956 9.88913 6.38456C9.2756 6.61548 8.44145 7.13823 7.6433 7.80234C7.469 7.94737 7.30154 8.09487 7.14291 8.24264H9.24263C9.79491 8.24264 10.2426 8.69036 10.2426 9.24264C10.2426 9.79493 9.79491 10.2426 9.24263 10.2426H4.99998C4.4477 10.2426 3.99998 9.79493 3.99998 9.24264V5C3.99998 4.44772 4.4477 4 4.99998 4Z" fill="white"/>
</svg>
